<?xml version="1.0" encoding="UTF-8" standalone="no"?>
<!-- Created with Inkscape (http://www.inkscape.org/) -->

<svg
   xmlns:dc="http://purl.org/dc/elements/1.1/"
   xmlns:cc="http://creativecommons.org/ns#"
   xmlns:rdf="http://www.w3.org/1999/02/22-rdf-syntax-ns#"
   xmlns:svg="http://www.w3.org/2000/svg"
   xmlns="http://www.w3.org/2000/svg"
   xmlns:sodipodi="http://sodipodi.sourceforge.net/DTD/sodipodi-0.dtd"
   xmlns:inkscape="http://www.inkscape.org/namespaces/inkscape"
   id="svg4155"
   version="1.1"
   inkscape:version="0.91 r13725"
   xml:space="preserve"
   width="942.27594"
   height="157.05859"
   viewBox="0 0 942.27594 157.05859"
   sodipodi:docname="wifi-frame.svg"><metadata
     id="metadata4161"><rdf:RDF><cc:Work
         rdf:about=""><dc:format>image/svg+xml</dc:format><dc:type
           rdf:resource="http://purl.org/dc/dcmitype/StillImage" /><dc:title></dc:title></cc:Work></rdf:RDF></metadata><defs
     id="defs4159"><clipPath
       clipPathUnits="userSpaceOnUse"
       id="clipPath4169"><path
         d="m -53.28,702.01 576,0 0,-738 -576,0 0,738 z"
         id="path4171"
         inkscape:connector-curvature="0" /></clipPath><clipPath
       clipPathUnits="userSpaceOnUse"
       id="clipPath4177"><path
         d="m -26.28,675 522,0 0,-684 -522,0 0,684 z"
         id="path4179"
         inkscape:connector-curvature="0" /></clipPath><clipPath
       clipPathUnits="userSpaceOnUse"
       id="clipPath4185"><path
         d="m 0.03,666 469.02,0 0,-665.97 -469.02,0 0,665.97 z"
         id="path4187"
         inkscape:connector-curvature="0" /></clipPath><clipPath
       clipPathUnits="userSpaceOnUse"
       id="clipPath4201"><path
         d="m -53.28,702.01 576,0 0,-738 -576,0 0,738 z"
         id="path4203"
         inkscape:connector-curvature="0" /></clipPath><clipPath
       clipPathUnits="userSpaceOnUse"
       id="clipPath4209"><path
         d="m -26.28,675 522,0 0,-684 -522,0 0,684 z"
         id="path4211"
         inkscape:connector-curvature="0" /></clipPath><clipPath
       clipPathUnits="userSpaceOnUse"
       id="clipPath4217"><path
         d="m 36.72,606 396,0 0,-69.09 -396,0 0,69.09 z"
         id="path4219"
         inkscape:connector-curvature="0"
         style="clip-rule:evenodd" /></clipPath><clipPath
       clipPathUnits="userSpaceOnUse"
       id="clipPath4225"><path
         d="m 0.03,666 469.02,0 0,-665.97 -469.02,0 0,665.97 z"
         id="path4227"
         inkscape:connector-curvature="0" /></clipPath><clipPath
       clipPathUnits="userSpaceOnUse"
       id="clipPath4305"><path
         d="m -53.28,702.01 576,0 0,-738 -576,0 0,738 z"
         id="path4307"
         inkscape:connector-curvature="0" /></clipPath><clipPath
       clipPathUnits="userSpaceOnUse"
       id="clipPath4313"><path
         d="m -26.28,675 522,0 0,-684 -522,0 0,684 z"
         id="path4315"
         inkscape:connector-curvature="0" /></clipPath><clipPath
       clipPathUnits="userSpaceOnUse"
       id="clipPath4321"><path
         d="m 0.03,666 469.02,0 0,-665.97 -469.02,0 0,665.97 z"
         id="path4323"
         inkscape:connector-curvature="0" /></clipPath><clipPath
       clipPathUnits="userSpaceOnUse"
       id="clipPath4501"><path
         d="m 0.03,666 469.02,0 0,-665.97 -469.02,0 0,665.97 z"
         id="path4503"
         inkscape:connector-curvature="0" /></clipPath></defs><sodipodi:namedview
     pagecolor="#ffffff"
     bordercolor="#666666"
     borderopacity="1"
     objecttolerance="10"
     gridtolerance="10"
     guidetolerance="10"
     inkscape:pageopacity="0"
     inkscape:pageshadow="2"
     inkscape:window-width="1280"
     inkscape:window-height="971"
     id="namedview4157"
     showgrid="false"
     fit-margin-top="0"
     fit-margin-left="0"
     fit-margin-right="0"
     fit-margin-bottom="0"
     inkscape:zoom="1.3691966"
     inkscape:cx="482.66353"
     inkscape:cy="-63.156827"
     inkscape:window-x="1366"
     inkscape:window-y="27"
     inkscape:window-maximized="1"
     inkscape:current-layer="g4163" /><g
     id="g4163"
     inkscape:groupmode="layer"
     inkscape:label="Dataandcomputercommunications"
     transform="matrix(1.25,0,0,-1.25,177.30945,791.65254)"><g
       id="g4197"
       transform="matrix(2,0,0,2,-235.06281,-570.49859)"><g
         id="g4199"
         clip-path="url(#clipPath4201)"><g
           id="g4205"><g
             id="g4207"
             clip-path="url(#clipPath4209)"><g
               id="g4213"><g
                 id="g4215"
                 clip-path="url(#clipPath4217)"><g
                   id="g4221"><g
                     id="g4223"
                     clip-path="url(#clipPath4225)"><path
                       d="m 72.748,571.34 350.77,0 0,19.542 -350.77,0 0,-19.542 z"
                       style="fill:#999999;fill-opacity:1;fill-rule:nonzero;stroke:none"
                       id="path4229"
                       inkscape:connector-curvature="0" /><path
                       d="m 68.948,574.14 351.77,0 0,19.543 -351.77,0 0,-19.543 z"
                       style="fill:#e1f4fd;fill-opacity:1;fill-rule:nonzero;stroke:none"
                       id="path4231"
                       inkscape:connector-curvature="0" /><path
                       d="m 420.72,574.14 -351.77,0 0,19.543 351.77,0 0,-19.543 z m -336.138,0 0,19.55 m 15.638,-19.55 0,19.55 m 40.43,-19.55 0,19.55 m 46.9,-19.55 0,19.55 m 46.9,-19.55 0,19.55 m 15.64,-19.55 0,19.55 m 46.9,-19.55 0,19.55 m 85.99,-19.55 0,19.55"
                       style="fill:none;stroke:#000000;stroke-width:1;stroke-linecap:butt;stroke-linejoin:miter;stroke-miterlimit:10;stroke-dasharray:none;stroke-opacity:1"
                       id="path4233"
                       inkscape:connector-curvature="0" /><text
                       transform="matrix(1,0,0,-1,71.433,580.95)"
                       style="font-variant:normal;font-weight:bold;font-size:8px;font-family:'Times New Roman';-inkscape-font-specification:Times-Bold;writing-mode:lr-tb;fill:#000000;fill-opacity:1;fill-rule:nonzero;stroke:none"
                       id="text4235"><tspan
                         x="0 4.888"
                         y="0"
                         sodipodi:role="line"
                         id="tspan4237">FC</tspan><tspan
                         x="-25.216 -18.992001 -15.44 -12.776 -9.224 -6.5599999 3.3280001 19.08 46.952 90.68 137.592 168.808 200.2 253.336"
                         y="-15.64"
                         sodipodi:role="line"
                         id="tspan4239">Octets22666260</tspan></text>
<text
                       transform="matrix(1,0,0,-1,330.769,596.59)"
                       style="font-variant:normal;font-weight:bold;font-size:8px;font-family:'Times New Roman';-inkscape-font-specification:Times-Bold;writing-mode:lr-tb;fill:#000000;fill-opacity:1;fill-rule:nonzero;stroke:none"
                       id="text4241"><tspan
                         x="0 2.664"
                         y="0"
                         sodipodi:role="line"
                         id="tspan4243">to</tspan></text>
<text
                       transform="matrix(1,0,0,-1,339.433,596.59)"
                       style="font-variant:normal;font-weight:bold;font-size:8px;font-family:'Times New Roman';-inkscape-font-specification:Times-Bold;writing-mode:lr-tb;fill:#000000;fill-opacity:1;fill-rule:nonzero;stroke:none"
                       id="text4245"><tspan
                         x="0 4 8 12 60.52"
                         y="0"
                         sodipodi:role="line"
                         id="tspan4247">23124</tspan></text>
<text
                       transform="matrix(1,0,0,-1,71.257,558.79)"
                       style="font-variant:normal;font-weight:normal;font-size:8px;font-family:'Times New Roman';-inkscape-font-specification:Times-Roman;writing-mode:lr-tb;fill:#000000;fill-opacity:1;fill-rule:nonzero;stroke:none"
                       id="text4249"><tspan
                         x="0 4.448"
                         y="0"
                         sodipodi:role="line"
                         id="tspan4251">FC</tspan></text>
<text
                       transform="matrix(1,0,0,-1,83.041,558.79)"
                       style="font-variant:normal;font-weight:normal;font-size:8px;font-family:'Times New Roman';-inkscape-font-specification:Times-Roman;writing-mode:lr-tb;fill:#000000;fill-opacity:1;fill-rule:nonzero;stroke:none"
                       id="text4253"><tspan
                         x="0 4.5120001"
                         y="0"
                         sodipodi:role="line"
                         id="tspan4255">= </tspan></text>
<text
                       transform="matrix(1,0,0,-1,89.553,558.79)"
                       style="font-variant:normal;font-weight:normal;font-size:8px;font-family:'Times New Roman';-inkscape-font-specification:Times-Roman;writing-mode:lr-tb;fill:#000000;fill-opacity:1;fill-rule:nonzero;stroke:none"
                       id="text4257"><tspan
                         x="0 4.448 7.112 10.664 16.888"
                         y="0"
                         sodipodi:role="line"
                         id="tspan4259">Frame</tspan></text>
<text
                       transform="matrix(1,0,0,-1,111.993,558.79)"
                       style="font-variant:normal;font-weight:normal;font-size:8px;font-family:'Times New Roman';-inkscape-font-specification:Times-Roman;writing-mode:lr-tb;fill:#000000;fill-opacity:1;fill-rule:nonzero;stroke:none"
                       id="text4261"><tspan
                         x="0 3.552 7.552 11.552 13.776 16.440001 20.440001"
                         y="0"
                         sodipodi:role="line"
                         id="tspan4263">control</tspan><tspan
                         x="-40.736 -34.959999 -32.736"
                         y="9"
                         sodipodi:role="line"
                         id="tspan4265">D/I</tspan></text>
<text
                       transform="matrix(1,0,0,-1,83.921,549.79)"
                       style="font-variant:normal;font-weight:normal;font-size:8px;font-family:'Times New Roman';-inkscape-font-specification:Times-Roman;writing-mode:lr-tb;fill:#000000;fill-opacity:1;fill-rule:nonzero;stroke:none"
                       id="text4267"><tspan
                         x="0 4.5120001"
                         y="0"
                         sodipodi:role="line"
                         id="tspan4269">= </tspan></text>
<text
                       transform="matrix(1,0,0,-1,90.433,549.79)"
                       style="font-variant:normal;font-weight:normal;font-size:8px;font-family:'Times New Roman';-inkscape-font-specification:Times-Roman;writing-mode:lr-tb;fill:#000000;fill-opacity:1;fill-rule:nonzero;stroke:none"
                       id="text4271"><tspan
                         x="0 5.776 9.776 12.44 15.992 18.216 20.440001 24.440001 28.440001 30.664 34.216 38.216 42.216 46.216 49.768002 53.32 55.543999 57.768002 61.768002"
                         y="0"
                         sodipodi:role="line"
                         id="tspan4273">Duration/connection</tspan></text>
<text
                       transform="matrix(1,0,0,-1,158.201,549.79)"
                       style="font-variant:normal;font-weight:normal;font-size:8px;font-family:'Times New Roman';-inkscape-font-specification:Times-Roman;writing-mode:lr-tb;fill:#000000;fill-opacity:1;fill-rule:nonzero;stroke:none"
                       id="text4275"><tspan
                         x="0 2.664"
                         y="0"
                         sodipodi:role="line"
                         id="tspan4277">ID</tspan><tspan
                         x="-86.944 -82.496002"
                         y="9"
                         sodipodi:role="line"
                         id="tspan4279">SC</tspan></text>
<text
                       transform="matrix(1,0,0,-1,83.041,540.79)"
                       style="font-variant:normal;font-weight:normal;font-size:8px;font-family:'Times New Roman';-inkscape-font-specification:Times-Roman;writing-mode:lr-tb;fill:#000000;fill-opacity:1;fill-rule:nonzero;stroke:none"
                       id="text4281"><tspan
                         x="0 4.5120001"
                         y="0"
                         sodipodi:role="line"
                         id="tspan4283">= </tspan></text>
<text
                       transform="matrix(1,0,0,-1,89.553,540.79)"
                       style="font-variant:normal;font-weight:normal;font-size:8px;font-family:'Times New Roman';-inkscape-font-specification:Times-Roman;writing-mode:lr-tb;fill:#000000;fill-opacity:1;fill-rule:nonzero;stroke:none"
                       id="text4285"><tspan
                         x="0 4.448 8 12 16 19.552 23.552 27.104"
                         y="0"
                         sodipodi:role="line"
                         id="tspan4287">Sequence</tspan></text>
<text
                       transform="matrix(1,0,0,-1,122.209,540.79)"
                       style="font-variant:normal;font-weight:normal;font-size:8px;font-family:'Times New Roman';-inkscape-font-specification:Times-Roman;writing-mode:lr-tb;fill:#000000;fill-opacity:1;fill-rule:nonzero;stroke:none"
                       id="text4289"><tspan
                         x="0 3.552 7.552 11.552 13.776 16.440001 20.440001"
                         y="0"
                         sodipodi:role="line"
                         id="tspan4291">control</tspan></text>
<text
                       transform="matrix(1,0,0,-1,86.961,580.95)"
                       style="font-variant:normal;font-weight:bold;font-size:8px;font-family:'Times New Roman';-inkscape-font-specification:Times-Bold;writing-mode:lr-tb;fill:#000000;fill-opacity:1;fill-rule:nonzero;stroke:none"
                       id="text4293"><tspan
                         x="0 5.776 8 19.504 25.280001 29.728001 34.175999 37.584 41.136002 44.248001 63.231998 69.008003 73.456001 77.903999 81.311996 84.863998 87.975998 110.144 115.92 120.368 124.816 128.224 131.776 134.888 172.752 178.528 182.976 187.424 190.832 194.384 197.496 232.368 237.256 240.808 244.808 251.472"
                         y="0"
                         sodipodi:role="line"
                         id="tspan4295">D/IAddressAddressAddressAddressFrame</tspan></text>
<text
                       transform="matrix(1,0,0,-1,343.985,580.95)"
                       style="font-variant:normal;font-weight:bold;font-size:8px;font-family:'Times New Roman';-inkscape-font-specification:Times-Bold;writing-mode:lr-tb;fill:#000000;fill-opacity:1;fill-rule:nonzero;stroke:none"
                       id="text4297"><tspan
                         x="0 4.448 8.448 12.896 49.304001 55.080002 60.855999 -106.848 -102.4"
                         y="0"
                         sodipodi:role="line"
                         id="tspan4299">bodyCRCSC</tspan></text>
</g></g></g></g></g></g></g></g><g
       id="g4301"><g
         id="g4303"
         clip-path="url(#clipPath4305)"><g
           id="g4309"><g
             id="g4317"><g
               clip-path="url(#clipPath4321)"
               id="g4319" /></g></g></g></g><g
       id="g4497"><g
         id="g4499"
         clip-path="url(#clipPath4501)"><g
           id="g4505"
           transform="translate(-17.28,702)"><path
             d="m 0,0 0,-24 m -36,-12 24,0 m 516,36 0,-24 m 36,-12 -24,0 M 0,-738 l 0,24 m -36,12 24,0 m 516,-36 0,24 m 36,12 -24,0"
             style="fill:none;stroke:#ffffff;stroke-width:0.5;stroke-linecap:butt;stroke-linejoin:miter;stroke-miterlimit:10;stroke-dasharray:none;stroke-opacity:1"
             id="path4507"
             inkscape:connector-curvature="0" /></g><g
           id="g4509"
           transform="translate(-17.28,702)"><path
             d="m 0,0 0,-24 m -36,-12 24,0 m 516,36 0,-24 m 36,-12 -24,0 M 0,-738 l 0,24 m -36,12 24,0 m 516,-36 0,24 m 36,12 -24,0"
             style="fill:none;stroke:#000000;stroke-width:0.25;stroke-linecap:butt;stroke-linejoin:miter;stroke-miterlimit:10;stroke-dasharray:none;stroke-opacity:1"
             id="path4511"
             inkscape:connector-curvature="0" /></g><g
           id="g4513"
           transform="translate(210.72,690)"><path
             d="m 0,0 48,0 m -48,-714 48,0 m -300,381 0,-48 m 552,48 0,-48 M 24,12 24,-12 m 0,-690 0,-24 m -288,369 24,0 m 528,0 24,0 M 24,0 30,0 c 0,-3.31 -2.69,-6 -6,-6 -3.31,0 -6,2.69 -6,6 0,3.31 2.69,6 6,6 3.31,0 6,-2.69 6,-6 m -6,-714 6,0 c 0,-3.312 -2.69,-6 -6,-6 -3.31,0 -6,2.688 -6,6 0,3.312 2.69,6 6,6 3.31,0 6,-2.688 6,-6 m -282,357 6,0 c 0,-3.31 -2.688,-6 -6,-6 -3.312,0 -6,2.69 -6,6 0,3.31 2.688,6 6,6 3.312,0 6,-2.69 6,-6 m 546,0 6,0 c 0,-3.31 -2.69,-6 -6,-6 -3.31,0 -6,2.69 -6,6 0,3.31 2.69,6 6,6 3.31,0 6,-2.69 6,-6"
             style="fill:none;stroke:#ffffff;stroke-width:0.5;stroke-linecap:butt;stroke-linejoin:miter;stroke-miterlimit:10;stroke-dasharray:none;stroke-opacity:1"
             id="path4515"
             inkscape:connector-curvature="0" /></g><g
           id="g4517"
           transform="translate(210.72,690)"><path
             d="m 0,0 48,0 m -48,-714 48,0 m -300,381 0,-48 m 552,48 0,-48 M 24,12 24,-12 m 0,-690 0,-24 m -288,369 24,0 m 528,0 24,0 M 24,0 30,0 c 0,-3.31 -2.69,-6 -6,-6 -3.31,0 -6,2.69 -6,6 0,3.31 2.69,6 6,6 3.31,0 6,-2.69 6,-6 m -6,-714 6,0 c 0,-3.312 -2.69,-6 -6,-6 -3.31,0 -6,2.688 -6,6 0,3.312 2.69,6 6,6 3.31,0 6,-2.688 6,-6 m -282,357 6,0 c 0,-3.31 -2.688,-6 -6,-6 -3.312,0 -6,2.69 -6,6 0,3.31 2.688,6 6,6 3.312,0 6,-2.69 6,-6 m 546,0 6,0 c 0,-3.31 -2.69,-6 -6,-6 -3.31,0 -6,2.69 -6,6 0,3.31 2.69,6 6,6 3.31,0 6,-2.69 6,-6"
             style="fill:none;stroke:#000000;stroke-width:0.25;stroke-linecap:butt;stroke-linejoin:miter;stroke-miterlimit:10;stroke-dasharray:none;stroke-opacity:1"
             id="path4519"
             inkscape:connector-curvature="0" /></g></g></g></g></svg>